PathFileType	4	(X/Y/Z)	s11c0103.trc
DataRate	CameraRate	NumFrames	NumMarkers	Units	OrigDataRate	OrigDataStartFrame	OrigNumFrames
200	200	4	48	mm	200	750	2000
Frame#	Time	racr			lacr			c7			jug			rlel			rdr			llel			ldr			s2			lic			ric			lasi			rasi			rpsi			lpsi			rgt			lgt			rth1			rth2			rth3			rth4			rlfc			rmfc			rsh1			rsh2			rsh3			rsh4			rlmal			rcal			rtoe			rmt5			lth1			lth2			lth4			lth3			llfc			lmfc			llmal			lcal			lmt5			lsh1			lsh2			lsh3			lsh4			ltoe			SBIKE			LBIKE			RBIKE			
		X1	Y1	Z1	X2	Y2	Z2	X3	Y3	Z3	X4	Y4	Z4	X5	Y5	Z5	X6	Y6	Z6	X7	Y7	Z7	X8	Y8	Z8	X9	Y9	Z9	X10	Y10	Z10	X11	Y11	Z11	X12	Y12	Z12	X13	Y13	Z13	X14	Y14	Z14	X15	Y15	Z15	X16	Y16	Z16	X17	Y17	Z17	X18	Y18	Z18	X19	Y19	Z19	X20	Y20	Z20	X21	Y21	Z21	X22	Y22	Z22	X23	Y23	Z23	X24	Y24	Z24	X25	Y25	Z25	X26	Y26	Z26	X27	Y27	Z27	X28	Y28	Z28	X29	Y29	Z29	X30	Y30	Z30	X31	Y31	Z31	X32	Y32	Z32	X33	Y33	Z33	X34	Y34	Z34	X35	Y35	Z35	X36	Y36	Z36	X37	Y37	Z37	X38	Y38	Z38	X39	Y39	Z39	X40	Y40	Z40	X41	Y41	Z41	X42	Y42	Z42	X43	Y43	Z43	X44	Y44	Z44	X45	Y45	Z45	X46	Y46	Z46	X47	Y47	Z47	X48	Y48	Z48	
750	3.7500	561.488893	1328.118533	-139.157996	530.949463	1315.053289	-451.485083	504.869829	1409.370129	-291.678676	494.377912	1225.431237	-297.106562	572.710748	1092.525412	19.058572	777.474308	927.678616	-72.775751	492.776328	1041.388455	-595.006776	766.469611	927.173481	-479.169271	-77.559479	1224.145362	-229.699421	112.582205	1248.354234	-454.283423	158.425559	1202.420841	-48.195633	132.661255	1179.138208	-411.575617	175.956000	1136.293604	-82.337029	-21.254583	1294.718749	-174.008874	-40.390618	1298.352948	-261.891722	73.433964	1051.778181	-31.873188	31.419365	1138.292643	-462.115379	156.032820	930.255570	-27.889123	223.646553	873.649853	-34.246823	254.928824	793.539241	-53.612206	253.180972	896.223570	-39.853158	317.156136	706.946068	-72.502681	323.514597	693.991790	-198.141454	240.036614	570.591289	-60.726734	215.197703	488.174883	-80.642769	153.565582	426.232172	-82.970837	237.139557	479.571262	-112.455088	78.582461	309.533326	-96.641567	14.587321	316.870155	-145.855953	261.109601	168.517357	-147.899111	187.766576	172.423968	-77.819825	168.750822	1083.151272	-480.863178	254.078205	1075.506255	-481.616330	268.162238	1107.571464	-468.279949	327.165988	1023.588793	-489.938152	455.750510	960.038293	-475.090082	474.593793	950.194461	-343.715799	239.930403	584.010157	-430.422413	174.531799	551.965990	-392.208274	364.440951	464.279912	-457.867554	397.006558	852.400880	-485.719233	378.953612	769.574378	-469.415170	320.456955	703.891730	-458.972214	408.728310	758.392314	-447.277377	461.899752	473.465135	-389.201509	-214.845610	952.110706	-256.064560	-17.752373	81.278552	-460.680064	-17.684013	81.185723	-61.941908	
751	3.7550	559.483113	1329.063610	-138.710117	528.950364	1318.375240	-450.888142	502.587954	1411.938628	-290.885387	492.168952	1227.991912	-297.036453	571.396582	1092.582797	18.856186	777.104592	927.644654	-72.988697	494.242809	1044.745837	-595.326590	766.417570	927.394352	-479.036399	-78.653143	1223.444885	-229.195763	110.729760	1248.318585	-454.524472	157.203543	1203.155490	-47.707547	131.715791	1178.179562	-412.817070	175.074045	1136.776312	-82.085310	-25.944675	1295.257304	-172.026610	-41.460633	1297.435569	-261.726310	73.669781	1051.892277	-31.644455	29.689922	1136.978549	-461.329151	158.364497	931.678189	-27.560191	227.158765	876.376865	-33.812115	259.958376	796.792217	-52.708387	256.200150	899.514357	-39.694737	323.391651	710.888246	-71.189720	330.720635	698.158026	-196.726015	243.455710	575.704591	-59.744497	216.890362	493.847561	-79.834778	154.175521	433.201111	-82.258124	238.771629	484.807507	-111.647456	76.965924	318.078044	-96.022126	13.486530	327.758251	-145.375169	254.042994	169.812698	-148.008358	181.055080	176.773592	-77.871520	166.805881	1080.365229	-480.906488	252.028064	1071.668891	-481.811231	266.538211	1103.558779	-468.654033	324.475510	1019.008976	-490.464597	453.384013	952.705513	-475.145949	471.993822	943.763725	-343.941337	242.135177	573.417458	-430.590127	177.471891	538.953596	-392.260839	370.587403	458.527436	-458.280000	395.802445	843.721735	-485.909476	378.879008	760.710310	-469.704561	321.151740	694.308062	-459.277635	408.695497	749.947089	-447.338474	467.652167	471.411155	-389.593894	-214.844174	952.029204	-255.950186	-17.764770	81.234829	-460.690663	-17.690588	81.122960	-61.923714	
752	3.7600	557.467313	1330.341871	-138.075641	526.937934	1322.063774	-450.220936	500.125153	1414.677921	-290.018984	490.184255	1230.708437	-297.009956	570.006458	1092.765367	18.671800	776.650386	927.591916	-73.229614	495.579679	1048.506344	-595.358382	766.407574	927.599703	-478.994044	-79.696048	1222.365946	-228.773233	108.618622	1247.953960	-454.353388	156.049298	1203.887926	-47.086769	130.550447	1176.628370	-413.378064	173.988326	1137.253801	-81.962133	-27.491107	1294.554937	-171.916778	-45.625731	1296.632633	-259.966657	73.963176	1051.937535	-31.413166	28.038949	1135.451827	-460.572068	160.525246	933.366429	-27.112756	230.665494	879.177492	-33.564031	264.866960	800.073084	-51.907741	259.117755	902.743248	-39.897788	329.312661	715.034077	-70.036558	337.531021	702.187874	-195.389023	246.886313	580.908342	-58.866224	218.772262	499.718972	-79.103274	154.976699	440.242878	-81.524669	240.488217	490.194944	-110.863438	75.547387	326.689782	-95.521591	12.480265	338.717938	-145.058092	247.173923	171.848492	-148.142029	174.717397	181.601782	-77.827652	165.263978	1077.581761	-481.529089	250.037079	1067.271305	-482.051987	264.992755	1099.030798	-469.141192	321.751950	1013.697619	-490.811735	449.848476	944.904753	-476.253786	469.421624	936.823436	-344.158978	244.506555	562.405095	-430.702347	180.895625	525.556606	-392.505448	376.529664	452.101080	-458.749595	394.593367	834.488471	-486.420238	378.807599	751.236113	-470.017050	321.941149	684.107300	-459.608011	408.609161	741.355365	-448.072032	473.176849	468.390603	-390.060558	-214.889618	951.958201	-255.887075	-17.800826	81.155020	-460.700637	-17.712988	81.056665	-61.901008	
753	3.7650	555.419000	1331.836118	-137.326384	524.955455	1326.059448	-449.516243	497.361010	1417.708119	-289.251825	488.359723	1233.693741	-296.988947	568.523834	1093.293801	18.463849	776.133968	927.478428	-73.459160	496.843487	1052.480376	-595.109268	765.779310	927.294985	-478.145803	-80.771310	1221.156646	-228.245041	106.412828	1247.233619	-453.977673	154.595656	1204.564476	-46.631033	129.474766	1174.893601	-413.831231	172.764448	1137.660398	-81.625053	-26.251219	1293.152936	-173.568031	-45.102791	1295.727256	-261.057856	74.328086	1051.903724	-31.241120	26.508520	1133.665575	-459.886001	162.631936	935.265273	-26.621590	234.121539	882.060700	-33.487472	269.695227	803.539043	-51.303297	262.081617	906.155004	-40.202368	334.939252	719.366271	-68.962762	343.716851	706.453506	-194.341824	250.336748	586.213205	-57.977455	220.668666	505.544187	-78.378288	155.818097	447.382400	-80.900669	242.277466	495.765395	-110.147644	74.344413	335.591985	-95.064284	11.858366	350.044197	-144.605115	240.550496	174.542951	-148.116035	168.458115	186.626943	-77.904934	163.488778	1073.983278	-481.589828	248.080772	1062.404738	-482.323122	263.498903	1094.082282	-469.834809	319.021575	1007.845514	-491.066771	448.019807	936.393914	-474.876021	466.777512	929.309654	-344.532641	247.224267	550.961740	-430.923879	184.455987	512.521941	-392.590203	382.314205	445.190364	-459.163708	393.327833	824.637538	-486.894561	378.679088	741.354498	-470.092199	322.926650	673.261571	-459.820916	408.610777	731.913750	-448.164674	478.512613	464.370631	-390.209774	-214.918968	951.866749	-255.807456	-17.836088	81.101116	-460.712081	-17.745043	80.970045	-61.865590	
